<svg xmlns="http://www.w3.org/2000/svg" viewBox="0 0 166.85 66.38"><defs><style>.cls-1{isolation:isolate;}.cls-2{font-size:29.66px;}.cls-14,.cls-2{fill:#fff;}.cls-2,.cls-3,.cls-4{font-family:CenturyGothic, Century Gothic;}.cls-3{font-size:34.4px;}.cls-11,.cls-3,.cls-4{fill:#71c2ac;stroke:#71c2ac;stroke-miterlimit:10;}.cls-4{font-size:24.5px;}.cls-5{fill:#201f1d;}.cls-6{fill:#676a75;}.cls-12,.cls-13,.cls-22,.cls-27,.cls-7{fill:#202121;}.cls-7{opacity:0.5;}.cls-12,.cls-13,.cls-28,.cls-7{mix-blend-mode:multiply;}.cls-8{fill:#52494d;}.cls-9{fill:#b8bec9;}.cls-10{fill:#e5252a;}.cls-12{opacity:0.29;}.cls-13{opacity:0.12;}.cls-15{fill:#3e4443;}.cls-16{fill:#f7f6fb;}.cls-17{fill:#5b5b5c;}.cls-18{fill:#afbed2;}.cls-19{fill:#8692a3;}.cls-20{fill:#9298aa;}.cls-21{fill:#606778;}.cls-22{opacity:0.38;}.cls-23{fill:#cbd1e0;}.cls-24{fill:#9ca1b2;}.cls-25{fill:#efefef;}.cls-26{fill:#67549f;}.cls-28{fill:#626161;opacity:0.11;}.cls-29{fill:#1d1f1f;}.cls-30{fill:#fafafa;}</style></defs><title>carLogo</title><g class="cls-1"><g id="Capa_1" data-name="Capa 1"><text class="cls-2" transform="translate(94.48 25.48)">This</text><text class="cls-3" transform="translate(110.23 55.33) scale(0.97 1)">L</text><text class="cls-4" transform="translate(117.78 49.6)">ogo</text><path class="cls-5" d="M90.35,36.91s1.51.31,1.81-.92a29.5,29.5,0,0,0,0-6l-.83-3.27a10.23,10.23,0,0,1-1.36,0,6,6,0,0,0-2.3.69c-.1.26-1.83,3.71-1.88,3.93s0,3.12.07,3.57A12.28,12.28,0,0,1,86.1,37c0,.58-.24,1.72-.07,1.73S90.35,36.91,90.35,36.91Z" transform="translate(-2.36 -1.91)"/><polygon class="cls-5" points="68.87 46.23 63.8 45.31 59 45.77 50.36 46.6 46.92 29.6 61.53 22.71 68.87 28.65 71.81 35.61 68.87 46.23"/><ellipse class="cls-6" cx="64.08" cy="45.62" rx="12.17" ry="3.74" transform="translate(9.64 102.65) rotate(-83.98)"/><path class="cls-5" d="M61.73,45.37c-.5,4.74.21,8.7,1.59,8.84s2.89-3.58,3.39-8.32-.21-8.69-1.59-8.84S62.23,40.63,61.73,45.37Z" transform="translate(-2.36 -1.91)"/><path class="cls-7" d="M65.84,45.8c.46-4.43-.26-8.14-1.62-8.32a1.14,1.14,0,0,1,.9-.43c1.38.15,2.09,4.1,1.59,8.84s-2,8.46-3.39,8.32a1.12,1.12,0,0,1-.8-.61C63.89,53.71,65.37,50.23,65.84,45.8Z" transform="translate(-2.36 -1.91)"/><path class="cls-8" d="M55.38,45.23c.7-6.69,2.94-11.94,5-11.72h4.75c-2,.19-4.08,5.29-4.76,11.72-.7,6.68.39,12.28,2.44,12.49h-5C55.77,57.51,54.67,51.91,55.38,45.23Z" transform="translate(-2.36 -1.91)"/><path class="cls-9" d="M63.49,45.55c-.3,2.93.17,5.37,1.07,5.46s1.87-2.2,2.18-5.12-.17-5.36-1.06-5.45S63.8,42.63,63.49,45.55Z" transform="translate(-2.36 -1.91)"/><path class="cls-8" d="M62.65,45.55c.31-2.92,1.29-5.21,2.18-5.11h.75c-.87.07-1.79,2.3-2.09,5.11s.17,5.37,1.07,5.46h-.74a.17.17,0,0,1-.1,0C62.82,50.92,62.35,48.48,62.65,45.55Z" transform="translate(-2.36 -1.91)"/><path class="cls-7" d="M55.38,45.23c.7-6.69,2.94-11.94,5-11.72h5c2.06.21,3.15,5.81,2.45,12.49-.09.79-.19,1.56-.31,2.3L55.18,50.1A35.87,35.87,0,0,1,55.38,45.23Z" transform="translate(-2.36 -1.91)"/><ellipse class="cls-6" cx="18.51" cy="35.58" rx="12.17" ry="3.74" transform="translate(-21.17 48.34) rotate(-83.98)"/><path class="cls-5" d="M16.16,35.33c-.5,4.74.21,8.7,1.59,8.84s2.89-3.58,3.39-8.32-.21-8.69-1.59-8.84S16.66,30.59,16.16,35.33Z" transform="translate(-2.36 -1.91)"/><path class="cls-7" d="M20.27,35.76c.46-4.43-.26-8.14-1.62-8.32a1.13,1.13,0,0,1,.9-.43c1.38.15,2.09,4.1,1.59,8.84s-2,8.46-3.39,8.32a1.12,1.12,0,0,1-.8-.61C18.32,43.67,19.8,40.19,20.27,35.76Z" transform="translate(-2.36 -1.91)"/><path class="cls-8" d="M9.81,35.19c.7-6.69,2.94-11.94,5-11.72h4.75c-2,.19-4.08,5.29-4.76,11.72-.7,6.68.39,12.28,2.44,12.49h-5C10.2,47.47,9.1,41.87,9.81,35.19Z" transform="translate(-2.36 -1.91)"/><path class="cls-9" d="M17.92,35.51c-.3,2.93.17,5.37,1.07,5.46s1.87-2.2,2.18-5.12S21,30.49,20.1,30.4,18.23,32.59,17.92,35.51Z" transform="translate(-2.36 -1.91)"/><path class="cls-8" d="M17.08,35.51c.31-2.92,1.29-5.21,2.18-5.11H20c-.87.07-1.79,2.3-2.09,5.11S18.09,40.88,19,41h-.84C17.25,40.88,16.77,38.44,17.08,35.51Z" transform="translate(-2.36 -1.91)"/><path class="cls-7" d="M12.25,47.68h5c2.06.22,4.29-5,5-11.72s-.39-12.28-2.45-12.49h-5c-2.05-.22-4.29,5-5,11.72S10.2,47.47,12.25,47.68Zm3.82-19Zm-1.21,5.88v0Zm.08-.6v0Zm.08-.59v0Zm.09-.57v0Zm.1-.57v0Zm.11-.55,0,.07Zm.11-.54v0Zm.12-.52,0,.06Zm.12-.51v0Zm.13-.5v0Zm.13-.47v0Zm.59-1.77Zm.16-.41h0Zm.16-.38h0Zm.17-.37v0Zm.17-.35v0Zm.17-.32h0Zm.18-.31h0ZM17.7,25h0Zm-.55,22.7h0Zm-.71-.38a1.68,1.68,0,0,0,.21.18A1.68,1.68,0,0,1,16.44,47.29Zm-.22-.22.12.13Zm-.11-.15-.18-.27Zm-.74-1.52c0,.09.06.18.1.27C15.43,45.58,15.4,45.49,15.37,45.4Zm.14.37.1.27Zm-.44-1.46c0,.11,0,.22.08.32C15.12,44.53,15.1,44.42,15.07,44.31Zm-.49-5.22v0Z" transform="translate(-2.36 -1.91)"/><path class="cls-6" d="M86.69,35.16c-.45,4.27.25,7.84,1.56,8s2.74-3.22,3.19-7.49-.25-7.84-1.56-8S87.14,30.89,86.69,35.16Z" transform="translate(-2.36 -1.91)"/><path class="cls-5" d="M87.56,35.25c-.32,3,.14,5.55,1,5.64s1.85-2.28,2.17-5.31-.14-5.55-1-5.64S87.88,32.22,87.56,35.25Z" transform="translate(-2.36 -1.91)"/><path class="cls-7" d="M90.19,35.52c.29-2.82-.17-5.19-1-5.31a.76.76,0,0,1,.58-.27c.88.09,1.33,2.62,1,5.64S89.46,41,88.58,40.89a.73.73,0,0,1-.51-.38C88.94,40.57,89.89,38.35,90.19,35.52Z" transform="translate(-2.36 -1.91)"/><path class="cls-8" d="M83.51,35.16c.45-4.27,1.87-7.62,3.19-7.48h3c-1.27.12-2.61,3.37-3,7.48-.45,4.27.25,7.84,1.56,8H85.07C83.76,43,83.06,39.43,83.51,35.16Z" transform="translate(-2.36 -1.91)"/><path class="cls-9" d="M88.69,35.37c-.2,1.86.11,3.42.68,3.48s1.2-1.4,1.39-3.27-.1-3.42-.68-3.48S88.89,33.5,88.69,35.37Z" transform="translate(-2.36 -1.91)"/><path class="cls-8" d="M88.15,35.37c.2-1.87.82-3.33,1.4-3.27H90c-.55,0-1.14,1.47-1.33,3.27s.11,3.42.68,3.48h-.54C88.26,38.79,88,37.23,88.15,35.37Z" transform="translate(-2.36 -1.91)"/><path class="cls-7" d="M85.07,43.14h3.18c1.31.14,2.74-3.22,3.19-7.49s-.25-7.84-1.56-8H86.7c-1.32-.14-2.74,3.21-3.19,7.48S83.76,43,85.07,43.14Zm1.66-8.37c0,.13,0,.26,0,.39C86.7,35,86.72,34.9,86.73,34.77Zm2-6.45,0,0Zm-.12.16,0-.05Zm-.12.17a.21.21,0,0,0,0-.06A.21.21,0,0,1,88.54,28.65Zm-.11.18,0-.07Zm-.12.2,0-.08Zm-.11.22,0-.09Zm-.11.23,0-.11Zm-.11.24a1.17,1.17,0,0,1,0-.11A1.17,1.17,0,0,0,88,29.72Zm-.1.25a.61.61,0,0,1,.05-.12A.61.61,0,0,0,87.88,30Zm-.11.26a.61.61,0,0,0,0-.12A.61.61,0,0,1,87.77,30.23Zm-.1.28s0-.09,0-.13S87.69,30.47,87.67,30.51Zm-.09.29c0-.05,0-.09,0-.14S87.59,30.75,87.58,30.8Zm-.1.3,0-.15Zm-.7,3.28,0,.26Zm.06-.37a1.7,1.7,0,0,1,0,.22A1.7,1.7,0,0,0,86.84,34Zm.06-.38c0,.07,0,.15,0,.22S86.89,33.7,86.9,33.63Zm.06-.36,0,.2Zm.07-.36a1.06,1.06,0,0,1,0,.19A1.06,1.06,0,0,0,87,32.91Zm.07-.35a1.29,1.29,0,0,1,0,.19A1.29,1.29,0,0,0,87.1,32.56Zm.08-.34c0,.06,0,.12,0,.18S87.17,32.28,87.18,32.22Zm.08-.33c0,.06,0,.11,0,.17S87.25,32,87.26,31.89Zm.09-.32c0,.05,0,.11,0,.16S87.33,31.62,87.35,31.57Zm.09-.32c0,.06,0,.11,0,.16S87.42,31.31,87.44,31.25Zm2.18-3.56,0,0Zm-.25.1h0Zm.12-.06,0,0Z" transform="translate(-2.36 -1.91)"/><path class="cls-10" d="M92.31,34.8s.73-7.74-1.78-10.47a4.74,4.74,0,0,0-3.34-1.5,1.82,1.82,0,0,0-.61-1.21s-.12-12-4.91-14.4A28.13,28.13,0,0,0,66.36,2.58H49.45S41,2.39,37.2,7.76c0,0-2.69,4.64-4.61,8.29,0,0-7.68,1.32-10.92,6,0,0-7.63-1.14-12.57,5.19,0,0-3.06,5-3.65,9.55,0,0-.69,5,3.88,7.06,0,0,15.83,6.75,33.86,6.55,0,0,8.09-.27,11.38-1.78,0,0,4-1.09,7-8.39,0,0,3.43-9.76,5.94-8.67,0,0,2.6.82,3.15,8.24l0,6.69s0,1.72.82,1.82c0,0,.92-.14.78-1.41l-.18-3.28S80.75,41.12,84,39.12l-.27,1.55s-.14.54.73.54l1.83.14s.82.27.82-1.46c0,0,.27-8.1,2.7-11.19,0,0,1.36-2.1,2,.5C91.81,29.2,92.22,32.16,92.31,34.8Z" transform="translate(-2.36 -1.91)"/><path class="cls-11" d="M92.31,34.8s.73-7.74-1.78-10.47a4.74,4.74,0,0,0-3.34-1.5,1.82,1.82,0,0,0-.61-1.21s-.12-12-4.91-14.4A28.13,28.13,0,0,0,66.36,2.58H49.45S41,2.39,37.2,7.76c0,0-2.69,4.64-4.61,8.29,0,0-7.68,1.32-10.92,6,0,0-7.63-1.14-12.57,5.19,0,0-3.06,5-3.65,9.55,0,0-.69,5,3.88,7.06,0,0,15.83,6.75,33.86,6.55,0,0,8.09-.27,11.38-1.78,0,0,4-1.09,7-8.39,0,0,3.43-9.76,5.94-8.67,0,0,2.6.82,3.15,8.24l0,6.69s0,1.72.82,1.82c0,0,.92-.14.78-1.41l-.18-3.28S80.75,41.12,84,39.12l-.27,1.55s-.14.54.73.54l1.83.14s.82.27.82-1.46c0,0,.27-8.1,2.7-11.19,0,0,1.36-2.1,2,.5C91.81,29.2,92.22,32.16,92.31,34.8Z" transform="translate(-2.36 -1.91)"/><path class="cls-7" d="M57.85,46.24a8.08,8.08,0,0,1-3.28,2.34c-3.29,1.51-11.38,1.78-11.38,1.78-18,.2-33.86-6.55-33.86-6.55a6.25,6.25,0,0,1-3.64-4.24C21.57,47,49.05,46.58,57.85,46.24Z" transform="translate(-2.36 -1.91)"/><path class="cls-12" d="M70.31,32.75a11.15,11.15,0,0,0-9-6.6,18.19,18.19,0,0,0-10.57,1.19s7.6-5.29,19.55-5.29A35.64,35.64,0,0,1,70.31,32.75Z" transform="translate(-2.36 -1.91)"/><path class="cls-13" d="M60.75,19.57s-12.14,0-25.69,15.16l-1.6,1.87S30.72,39.85,28.29,39c0,0-1.92-1-.54-4.83,0,0,3.93-9.74,8.27-13,0,0,4.29-2.94,6.71-3.56,0,0,3.53-1.9,9.74-1a73.09,73.09,0,0,1,8.28,1.51s2.6.43,2,1.17C62.7,19.32,62.5,19.69,60.75,19.57Z" transform="translate(-2.36 -1.91)"/><path class="cls-13" d="M37.63,32.16a.21.21,0,0,0,.1,0c6.42-6.41,12.35-9.45,16.19-10.86a22.16,22.16,0,0,1,6.83-1.55c1.62.1,2-.19,2.06-.31a.43.43,0,0,0,.11-.45c-.21-.58-1.79-.87-2.14-.93a72.44,72.44,0,0,0-8.29-1.52,22.74,22.74,0,0,0-3.36-.22.13.13,0,0,0-.14.13.14.14,0,0,0,.14.14h0a23.53,23.53,0,0,1,3.32.22,73,73,0,0,1,8.25,1.51h0c.73.12,1.81.43,1.93.75,0,0,0,.09-.06.19l0,0h0s-.28.29-1.82.19h0A22.28,22.28,0,0,0,53.82,21,46.1,46.1,0,0,0,37.53,31.92a.15.15,0,0,0,0,.2A.18.18,0,0,0,37.63,32.16Z" transform="translate(-2.36 -1.91)"/><path class="cls-14" d="M29.12,39.23c2.18,0,4.29-2.46,4.39-2.58a.07.07,0,0,0-.11-.09s-2.74,3.2-5.08,2.4c0,0-1.84-1-.51-4.73,0-.1,4-9.76,8.25-12.94,0,0,4.31-2.95,6.69-3.56h0A9.64,9.64,0,0,1,45,17a.06.06,0,0,0,.05-.08s0-.06-.08-.05a10.68,10.68,0,0,0-2.3.78C40.3,18.22,36,21.15,36,21.18c-4.31,3.2-8.26,12.9-8.3,13-1.37,3.88.5,4.87.58,4.91A2.62,2.62,0,0,0,29.12,39.23Z" transform="translate(-2.36 -1.91)"/><path class="cls-15" d="M65,4.71s-13.2-1.86-19.65-1A8.75,8.75,0,0,0,37.71,8l-2.65,5s-1.33,2.45.68,2.59c0,0,2.06-.18,3.79-.27,0,0,10.26-1.48,25.5,2.48,0,0,3.52,1.48,4.43-1.62,0,0,1.15-5.14.78-7.42C70.24,8.76,70,5.31,65,4.71Z" transform="translate(-2.36 -1.91)"/><path class="cls-15" d="M81.33,18.69l-.65-9.08s-.2-1.47-1.44-1.54c0,0-2.29-.2-3.11-.17a3.93,3.93,0,0,0-3.71,3.24l-.82,6.21s-.41,2.91,1.82,2.91h6.92S81.68,20.43,81.33,18.69Z" transform="translate(-2.36 -1.91)"/><path class="cls-15" d="M81.39,9.16s1.32,7.24,1.25,10.21c0,0,0,.58.85.54h2.09s.56.35.62-1c0,0-.27-7.88-3.7-10L82,8.51S81,7.93,81.39,9.16Z" transform="translate(-2.36 -1.91)"/><path class="cls-13" d="M31,43.6C26.77,43.13,20.34,42,20.27,42h0l0,0c-.08,0-2-1.31-2-4.95,0-.33-.46-8,1.52-11.33a23.54,23.54,0,0,1,1.87-3.73c3.23-4.64,10.93-6,11-6a96.92,96.92,0,0,1,35.37,3.23,1.33,1.33,0,0,1,.76.5,2,2,0,0,1,.22,1.52c0,.12-.12.89-1.59.94-.09,0-9.21.72-14.56,4.21h0A47.47,47.47,0,0,0,37.75,40a7.73,7.73,0,0,1-5.09,3.59,6.58,6.58,0,0,1-.9.06A5.79,5.79,0,0,1,31,43.6ZM67.31,21.83c1.3,0,1.33-.66,1.33-.69v0a1.66,1.66,0,0,0-.16-1.31,1,1,0,0,0-.59-.4h0a96.59,96.59,0,0,0-35.26-3.23c-.07,0-7.65,1.36-10.82,5.9A22.46,22.46,0,0,0,20,25.76v0c-2,3.27-1.5,11.1-1.49,11.19.06,3.29,1.7,4.57,1.9,4.72.48.08,6.61,1.17,10.72,1.63a6.17,6.17,0,0,0,1.55,0,7.52,7.52,0,0,0,4.9-3.46h0a47.51,47.51,0,0,1,15.1-13.76C58,22.55,67.21,21.83,67.31,21.83Zm.6-2.55Z" transform="translate(-2.36 -1.91)"/><path class="cls-12" d="M71.06,22.42l13.71-.91s2.38.13,2.33,2a90.39,90.39,0,0,1-2,10.78l-1,3.78a2.8,2.8,0,0,1-1.31,1.77s-9.57,3.69-10.57,3.74c0,0-.32-8.06-1.51-10.29,0,0,.91-7.51.36-9.92C71,23.37,70.51,22.45,71.06,22.42Z" transform="translate(-2.36 -1.91)"/><path class="cls-13" d="M36.93,50.5a.15.15,0,0,0,.14-.11c0-.13,2.22-12.68,4.19-14.73a.14.14,0,0,0,0-.2.13.13,0,0,0-.19,0c-2,2.11-4.17,14.35-4.27,14.87a.14.14,0,0,0,.12.16Z" transform="translate(-2.36 -1.91)"/><path class="cls-13" d="M14.17,44.37a.15.15,0,0,0,.14-.1c0-.11,3.11-10.91,3.67-12a.13.13,0,1,0-.24-.12c-.58,1.09-3.57,11.58-3.7,12a.13.13,0,0,0,.1.17Z" transform="translate(-2.36 -1.91)"/><path class="cls-16" d="M57.9,48a27.78,27.78,0,0,0,0-2.91s.37-.45-1-.77a12.5,12.5,0,0,0-3.15-.23S18.65,41,11.32,38.82c0,0-5.28-1.16-6.24-2.22l-1.23.31s-.76.31-.65,1.61V40a1.31,1.31,0,0,0,1.17,1.44s12.78,5.46,47.74,7.39c0,0,3.7.09,4.11,0C56.21,48.81,57.88,48.94,57.9,48Z" transform="translate(-2.36 -1.91)"/><path class="cls-17" d="M52.35,47.64c3.53,0,5.31-.17,5.49-.19a.82.82,0,1,0-.17-1.63h0c-.11,0-11.53,1.12-35.5-2.46-.52-.1-14.72-2.76-18.59-4.92a.82.82,0,0,0-.8,1.44c4.15,2.31,18.49,5,19.1,5.1h0A210.11,210.11,0,0,0,52.35,47.64Z" transform="translate(-2.36 -1.91)"/><path class="cls-18" d="M39.53,15.32c-1.73.09-3.79.27-3.79.27a1.53,1.53,0,0,1-.68-.19l3.13-6C39.56,6.77,43,6.74,43,6.74H46.1c1.3,0,1.13.82,1.13.82l-1.54,6.89-.21.6A43.22,43.22,0,0,0,39.53,15.32Z" transform="translate(-2.36 -1.91)"/><path class="cls-18" d="M48.45,7.91a.91.91,0,0,1,1.41-.48s4.55,1.29,5.6,4.93a9.77,9.77,0,0,1,.14,3.52,79,79,0,0,0-8.81-.8Z" transform="translate(-2.36 -1.91)"/><path class="cls-19" d="M63.89,16.14a2,2,0,0,1-1.74-.53l-1.32-3.25c-1-2.37,3-2.73,3-2.73a29.3,29.3,0,0,1,6.51-.13,32.86,32.86,0,0,1-.79,6.41A43.81,43.81,0,0,0,63.89,16.14Z" transform="translate(-2.36 -1.91)"/><path class="cls-19" d="M80.78,11l.48,6.7-2.4-.62A38.76,38.76,0,0,0,71.78,16l.64-4.86a4,4,0,0,1,.5-1.4c3.86.43,7.15,1.08,7.15,1.08C80.33,10.86,80.57,10.92,80.78,11Z" transform="translate(-2.36 -1.91)"/><path class="cls-19" d="M82.85,12.59l.89,4.82c.16.84-.58.8-1.14.65-.12-2-.53-4.81-.84-6.72C82.86,11.9,82.85,12.59,82.85,12.59Z" transform="translate(-2.36 -1.91)"/><path class="cls-13" d="M57.24,25.44h0a38.62,38.62,0,0,1,12.63-2.58.14.14,0,0,0,.14-.14.13.13,0,0,0-.14-.13h0a38.56,38.56,0,0,0-12.73,2.6.14.14,0,0,0-.07.18A.13.13,0,0,0,57.24,25.44Z" transform="translate(-2.36 -1.91)"/><path class="cls-14" d="M68,30a2.48,2.48,0,0,0-3.66,0,3.09,3.09,0,0,0-1,1.41s-.37,1.77-3.39,1.32c0,0-3.93-1.05-4.66.5,0,0-.68-3.1-3.61-2.78a12.41,12.41,0,0,1,9.92-3.07S66.13,27.6,68,30Z" transform="translate(-2.36 -1.91)"/><path class="cls-20" d="M45.53,36.22A4.56,4.56,0,1,0,49.67,31,4.73,4.73,0,0,0,45.53,36.22Z" transform="translate(-2.36 -1.91)"/><path class="cls-21" d="M44.89,36.7c.22,2.69,2.29,4.73,4.63,4.54s4.06-2.52,3.85-5.21-2.29-4.73-4.63-4.54S44.68,34,44.89,36.7Z" transform="translate(-2.36 -1.91)"/><path class="cls-14" d="M45.25,36.67a4.22,4.22,0,0,0,4.24,4.17c2.14-.17,3.72-2.31,3.53-4.78s-2.1-4.34-4.25-4.17S45.05,34.2,45.25,36.67Z" transform="translate(-2.36 -1.91)"/><path class="cls-22" d="M48.77,31.89a3.46,3.46,0,0,1,1.57.25,3.72,3.72,0,0,0-.58,0c-2.14.17-3.72,2.31-3.53,4.78a4.54,4.54,0,0,0,2.68,3.92,4.32,4.32,0,0,1-3.66-4.16C45.05,34.2,46.63,32.06,48.77,31.89Z" transform="translate(-2.36 -1.91)"/><path class="cls-22" d="M53,36.37s-4.94-2.09-7.5-1.64a2.13,2.13,0,0,1,1.73-2,4.27,4.27,0,0,1,3.08,1,9.37,9.37,0,0,1,1.3.58,3,3,0,0,1,.76.68C52.53,35.27,53,36.37,53,36.37Z" transform="translate(-2.36 -1.91)"/><path class="cls-23" d="M53,36.37s-6.39-4.55-7.5-1.83a3.87,3.87,0,0,1,3.21-3.05S53.07,31.21,53,36.37Z" transform="translate(-2.36 -1.91)"/><ellipse class="cls-20" cx="10.71" cy="29.05" rx="3.46" ry="4.4" transform="translate(-3.09 -1.63) rotate(-1.44)"/><path class="cls-21" d="M6.79,29.81c.16,2.42,1.73,4.25,3.51,4.08s3.09-2.26,2.93-4.69S11.49,25,9.71,25.12,6.62,27.38,6.79,29.81Z" transform="translate(-2.36 -1.91)"/><path class="cls-14" d="M7.05,29.78c.15,2.22,1.6,3.9,3.23,3.75s2.83-2.08,2.68-4.3-1.59-3.9-3.22-3.75S6.9,27.56,7.05,29.78Z" transform="translate(-2.36 -1.91)"/><path class="cls-22" d="M9.74,25.48a2.23,2.23,0,0,1,1.19.22,2.16,2.16,0,0,0-.44,0c-1.63.16-2.83,2.08-2.68,4.31a4.15,4.15,0,0,0,2,3.53c-1.44-.16-2.65-1.73-2.79-3.75C6.9,27.56,8.11,25.63,9.74,25.48Z" transform="translate(-2.36 -1.91)"/><path class="cls-22" d="M13,29.5S9.22,27.63,7.27,28c0,0,.06-1.54,1.31-1.78a3,3,0,0,1,2.35.89,7.37,7.37,0,0,1,1,.52c.13.13.47.37.57.62S13,29.5,13,29.5Z" transform="translate(-2.36 -1.91)"/><path class="cls-23" d="M13,29.5s-4.86-4.08-5.7-1.64c0,0,.41-2.5,2.44-2.74C9.71,25.12,13,24.87,13,29.5Z" transform="translate(-2.36 -1.91)"/><path class="cls-14" d="M68.28,20.26S58.82,20.05,52,24.62c0,0,3.57-2.54,2.54-2.57a16.82,16.82,0,0,0-7.33,2.57A25.57,25.57,0,0,1,59.5,20.26S65.26,19.65,68.28,20.26Z" transform="translate(-2.36 -1.91)"/><path class="cls-13" d="M42.14,15.88s1.64.48-.37,1.3c0,0-6,2.64-9.36,5.53a22.89,22.89,0,0,0-6.26,10.54L24.82,37s-.78,1.73-2.33,1.41c0,0-2.24-.73-2.24-5.64,0,0,.23-8.06,3.57-11.93a15.87,15.87,0,0,1,10.81-4.77A51.09,51.09,0,0,1,42.14,15.88Z" transform="translate(-2.36 -1.91)"/><path class="cls-13" d="M26.06,33.64a.14.14,0,0,0,.12-.09l.1-.27A23,23,0,0,1,32.5,22.81c3.28-2.84,9.27-5.48,9.33-5.5q1.11-.45,1.08-.93c0-.41-.66-.61-.73-.63h0a51.3,51.3,0,0,0-7.54.17c-.39,0-.79,0-1.19.07a.12.12,0,0,0-.12.14.14.14,0,0,0,.15.13c.39,0,.78-.06,1.17-.07A54.19,54.19,0,0,1,42.11,16c.17.06.52.21.53.39s-.06.31-.92.66c-.06,0-6.09,2.68-9.4,5.55A23.26,23.26,0,0,0,26,33.21l-.08.25a.13.13,0,0,0,.08.17Z" transform="translate(-2.36 -1.91)"/><path class="cls-14" d="M22.86,38.5a2,2,0,0,0,1.43-.65.08.08,0,0,0,0-.09.07.07,0,0,0-.1,0,1.78,1.78,0,0,1-1.69.56s-2.18-.77-2.18-5.57c0-.08.27-8.08,3.55-11.88a16.21,16.21,0,0,1,7.66-4.37.07.07,0,0,0,0-.08.07.07,0,0,0-.08-.05,16.44,16.44,0,0,0-7.74,4.41c-3.31,3.84-3.57,11.88-3.58,12,0,4.91,2.2,5.67,2.29,5.71A2.58,2.58,0,0,0,22.86,38.5Z" transform="translate(-2.36 -1.91)"/><path class="cls-14" d="M19.85,22.63a13.93,13.93,0,0,0-6,2.09s1.82,1.91,1.64,5.83a11.31,11.31,0,0,1,2.35-1.78A14.85,14.85,0,0,1,19.85,22.63Z" transform="translate(-2.36 -1.91)"/><path class="cls-14" d="M43.85,36.44a5.75,5.75,0,0,0,.57,3.85,5.51,5.51,0,0,0,3,2.56,5.32,5.32,0,0,0,4-.17,5.48,5.48,0,0,0,2.73-2.78,6.14,6.14,0,0,1-2.87,2.47,5.33,5.33,0,0,1-3.69.11,5.38,5.38,0,0,1-1.64-.91,5.66,5.66,0,0,1-1.24-1.43A6.16,6.16,0,0,1,43.85,36.44Z" transform="translate(-2.36 -1.91)"/><path class="cls-14" d="M6.76,29.28a5.85,5.85,0,0,0-.12,1.62l0,.41.08.4a2.62,2.62,0,0,0,.11.4A2.58,2.58,0,0,0,7,32.5a4.53,4.53,0,0,0,.87,1.42,3.77,3.77,0,0,0,1.37,1,3.53,3.53,0,0,0,1.67.27,3.84,3.84,0,0,0,1.62-.5,4.8,4.8,0,0,0,2.05-2.51,5.55,5.55,0,0,1-2.22,2.21,3.81,3.81,0,0,1-1.47.41h-.38l-.38,0-.38-.08-.36-.12a3.9,3.9,0,0,1-1.26-.87,5.1,5.1,0,0,1-.86-1.29,5.73,5.73,0,0,1-.46-1.51A7.13,7.13,0,0,1,6.76,29.28Z" transform="translate(-2.36 -1.91)"/><path class="cls-24" d="M31.51,44.72l-18-3s-.79-.59-.69.77L13,45.7s-.23.52.6.7l17.88,3.2s1,.43.9-.75V45.54A.75.75,0,0,0,31.51,44.72Z" transform="translate(-2.36 -1.91)"/><path class="cls-24" d="M87.47,36.27c-.27,2-.32,3.62-.32,3.62,0,1.73-.82,1.46-.82,1.46l-1.83-.14c-.87,0-.73-.54-.73-.54L84,39.12,84.57,36A6.51,6.51,0,0,0,87.47,36.27Z" transform="translate(-2.36 -1.91)"/><path class="cls-12" d="M81.73,24.62h0a.35.35,0,0,0,.35-.34V22.65a.35.35,0,0,0-.35-.34h0a.34.34,0,0,0-.34.34v1.63A.34.34,0,0,0,81.73,24.62Z" transform="translate(-2.36 -1.91)"/><path class="cls-25" d="M81,24.28l.62-.1.62-.12.61-.16.31-.1a2.45,2.45,0,0,0,.33-.16.2.2,0,0,0-.18-.36h0a3.32,3.32,0,0,1-.53.08h-.59l-.6,0-.59,0a.48.48,0,0,0-.52.44.49.49,0,0,0,.44.52Z" transform="translate(-2.36 -1.91)"/><path class="cls-7" d="M81,24.28l.62-.1.62-.12.61-.16.31-.1a2.45,2.45,0,0,0,.33-.16.2.2,0,0,0-.18-.36h0a3.32,3.32,0,0,1-.53.08h-.59l-.6,0-.59,0a.48.48,0,0,0-.52.44.49.49,0,0,0,.44.52Z" transform="translate(-2.36 -1.91)"/><path class="cls-13" d="M70.61,21.42a.13.13,0,0,0,.13-.12L72.25,9.76a3.56,3.56,0,0,1,2.9-2.89,13.86,13.86,0,0,1,6.19.53,6.83,6.83,0,0,1,3.44,4.2.14.14,0,0,0,.16.11.13.13,0,0,0,.1-.17,7.15,7.15,0,0,0-3.59-4.4,14.28,14.28,0,0,0-6.34-.54A3.88,3.88,0,0,0,72,9.72L70.47,21.26a.13.13,0,0,0,.12.15Z" transform="translate(-2.36 -1.91)"/><path class="cls-14" d="M79.7,6.6A12.58,12.58,0,0,0,68.09,5.31s2.61.77,2.52,4.43c0,0,.73-2.88,3.29-3C73.9,6.74,74.86,6.2,79.7,6.6Z" transform="translate(-2.36 -1.91)"/><path class="cls-14" d="M91.12,25.78s-.87-1.47-2.08-1.34c0,0-1,0-1.14.32a7.24,7.24,0,0,1-1.07,2.64,17.44,17.44,0,0,0,.48-4.25A4,4,0,0,1,91.12,25.78Z" transform="translate(-2.36 -1.91)"/><path class="cls-13" d="M66.42,28.22a11,11,0,0,0-2.9-1.43l-.09,0v-.1c0-.71-.13-2.22-.13-2.24,0-.23.17-.66.81-.71l1.72-.13a1,1,0,0,1,1.19,1l.18,2.77a.84.84,0,0,1-.67.85l-.06,0Zm-.55-4.37L64.13,24h0c-.54,0-.56.39-.56.42s.09,1.4.13,2.15A11.42,11.42,0,0,1,66.52,28a.56.56,0,0,0,.41-.55l-.18-2.77a.89.89,0,0,0-.3-.65.8.8,0,0,0-.47-.15Zm-2.3,2.81Z" transform="translate(-2.36 -1.91)"/><rect class="cls-5" x="40.64" y="45.14" width="9.78" height="2.64" transform="matrix(-1, -0.04, 0.04, -1, 86.62, 92.96)"/><polygon class="cls-5" points="0.64 37.33 8.18 39.34 8.72 37.31 1.19 35.3 0.64 37.33"/><path class="cls-26" d="M30,44.46l1.56.26a.75.75,0,0,1,.91.82v3.31c.13,1.18-.9.75-.9.75L30,49.32Z" transform="translate(-2.36 -1.91)"/><path class="cls-20" d="M72.12,43.63c2.77-1,11.07-3.9,11.92-4.51a1,1,0,0,1,1.3.21,1.69,1.69,0,0,1,.52,1.3S74.88,47,72,48C72,48,72.39,47.54,72.12,43.63Z" transform="translate(-2.36 -1.91)"/><path class="cls-12" d="M88.09,28.24s.55-2.19,1.93-2.35c0,0,1.12-.25,2,1.81a27.7,27.7,0,0,1,.31,7.1c-.09-2.64-.5-5.6-.5-5.6-.6-2.6-2-.5-2-.5-2.43,3.09-2.7,11.19-2.7,11.19,0,1.73-.82,1.46-.82,1.46h0S87.14,32,88.09,28.24Z" transform="translate(-2.36 -1.91)"/><path class="cls-7" d="M85.86,40.63S74.88,47,72,48c0,0,.19-.22.2-1.73a68.36,68.36,0,0,0,13.27-6.79A1.9,1.9,0,0,1,85.86,40.63Z" transform="translate(-2.36 -1.91)"/><path class="cls-12" d="M54.62,39s1.35-3,1.09-4.81a3.38,3.38,0,0,1,3.3-.53s2.79.78,3.79-.37c0,0-2.66,7.83-5,9.9,0,0,.77-3.89-1.63-3.68A1.06,1.06,0,0,1,54.62,39Z" transform="translate(-2.36 -1.91)"/><path class="cls-27" d="M58,11.16a48.19,48.19,0,0,1,12.21.92c-.24,2.07-.7,4.1-.7,4.1C68.55,19.28,65,17.8,65,17.8a87.13,87.13,0,0,0-13.39-2.41A5.38,5.38,0,0,1,58,11.16Z" transform="translate(-2.36 -1.91)"/><path class="cls-27" d="M71.6,17.35l.64-4.84c2.57.57,4.24,1.09,4.24,1.09,2.8.54,2.38,2.56,2.38,2.56l-.69,4.1H73.42C71.19,20.26,71.6,17.35,71.6,17.35Z" transform="translate(-2.36 -1.91)"/><path class="cls-28" d="M85.89,30.85c-.26,1.28-.55,2.5-.84,3.44l-1,3.78a2.8,2.8,0,0,1-1.31,1.77s-9.57,3.69-10.57,3.74c0,0-.11-2.53-.4-5.14A17.24,17.24,0,0,0,85.89,30.85Z" transform="translate(-2.36 -1.91)"/><path class="cls-22" d="M13.49,41.76l18,3a.75.75,0,0,1,.91.82v2.08L12.83,42.9l0-.37C12.7,41.17,13.49,41.76,13.49,41.76Z" transform="translate(-2.36 -1.91)"/><path class="cls-29" d="M65,18.06c-15-3.89-25.27-2.49-25.38-2.47h0c-1.71.09-3.76.27-3.78.27h-.05a1.37,1.37,0,0,1-1.2-.64c-.48-.87.21-2.2.29-2.35l2.65-5v0a9.12,9.12,0,0,1,7.9-4.45c6.39-.85,19.43,1,19.7,1,5,.6,5.42,4,5.44,4.29.37,2.3-.73,7.3-.78,7.51v0a2.87,2.87,0,0,1-1.5,1.88,3.29,3.29,0,0,1-1.39.28A5.68,5.68,0,0,1,65,18.06Zm5-9.25v0S69.7,5.54,65,5h0c-.13,0-13.24-1.85-19.57-1h-.06a8.57,8.57,0,0,0-7.42,4.19l-2.64,5c-.18.33-.59,1.31-.3,1.82a.84.84,0,0,0,.74.37c.23,0,2.15-.19,3.77-.27.43-.06,10.72-1.38,25.59,2.48l0,0a4.14,4.14,0,0,0,2.86.09,2.3,2.3,0,0,0,1.2-1.53C69.25,15.87,70.32,11,70,8.81Z" transform="translate(-2.36 -1.91)"/><path class="cls-30" d="M64.91,17.8C50,13.93,39.76,15.33,39.65,15.35c-1.7.09-3.74.27-3.77.27a1.2,1.2,0,0,1-1-.54c-.43-.78.27-2.08.3-2.13L37.78,8a8.78,8.78,0,0,1,7.66-4.31c6.32-.85,19.33,1,19.49,1,4.94.59,5.23,4,5.23,4.07.36,2.24-.76,7.33-.78,7.39A2.58,2.58,0,0,1,68,17.89a3,3,0,0,1-1.3.27A5,5,0,0,1,64.91,17.8Zm-19.46-14h0a8.69,8.69,0,0,0-7.55,4.25L35.27,13s-.69,1.29-.3,2a1.05,1.05,0,0,0,.91.47s2.06-.18,3.76-.27c.1,0,10.35-1.42,25.31,2.46a4.25,4.25,0,0,0,3,.1,2.47,2.47,0,0,0,1.3-1.65c0-.05,1.13-5.11.77-7.33,0,0-.29-3.38-5.1-4h0A135.38,135.38,0,0,0,49.6,3.62,32.3,32.3,0,0,0,45.45,3.84Z" transform="translate(-2.36 -1.91)"/><path class="cls-29" d="M80.33,20.53H73.42a1.89,1.89,0,0,1-1.51-.63,3.68,3.68,0,0,1-.58-2.58l.82-6.22a4.21,4.21,0,0,1,4-3.47c.83,0,3.06.16,3.15.17A2,2,0,0,1,81,9.57l.66,9.08a1.68,1.68,0,0,1-.27,1.52,1.24,1.24,0,0,1-.91.36ZM79.22,8.34s-2.29-.2-3.09-.17a3.6,3.6,0,0,0-3.43,3l-.83,6.21a3.19,3.19,0,0,0,.45,2.15,1.36,1.36,0,0,0,1.1.44h7a.74.74,0,0,0,.56-.18,1.27,1.27,0,0,0,.13-1.06v0l-.65-9.08C80.39,9.52,80.19,8.4,79.22,8.34Z" transform="translate(-2.36 -1.91)"/><path class="cls-30" d="M80.23,20.14H73.51a1.68,1.68,0,0,1-1.32-.54,3.34,3.34,0,0,1-.51-2.35l.8-6A3.88,3.88,0,0,1,76.13,8c.8,0,3,.15,3,.16,1.23.07,1.45,1.54,1.46,1.55l.63,8.81a1.48,1.48,0,0,1-.21,1.32,1,1,0,0,1-.73.28Zm-4.09-12a3.76,3.76,0,0,0-3.53,3.09l-.8,6a3.32,3.32,0,0,0,.49,2.24,1.52,1.52,0,0,0,1.21.49h6.72a.94.94,0,0,0,.72-.24,1.35,1.35,0,0,0,.17-1.2l-.63-8.81c0-.06-.21-1.37-1.33-1.43,0,0-1.91-.17-2.82-.17Z" transform="translate(-2.36 -1.91)"/><path class="cls-29" d="M85.52,20.19h-2a1.19,1.19,0,0,1-.89-.28.8.8,0,0,1-.25-.55A76.3,76.3,0,0,0,81.12,9.23c-.11-.33-.21-.78.08-1s.8,0,.89.07l.56.42c3.51,2.14,3.81,9.85,3.82,10.18h0c0,.7-.19,1.11-.49,1.27a.57.57,0,0,1-.25.06A.65.65,0,0,1,85.52,20.19Zm-3.16-11-.56-.42a.89.89,0,0,0-.24-.09,1.36,1.36,0,0,0,.09.42v0c0,.3,1.32,7.3,1.25,10.25,0,.05,0,.3.58.28h2.17l.07,0s.16-.1.2-.79C85.91,18.56,85.56,11.1,82.36,9.16Z" transform="translate(-2.36 -1.91)"/><path class="cls-30" d="M85.49,19.74h-2a.93.93,0,0,1-.72-.2.59.59,0,0,1-.17-.39A75.73,75.73,0,0,0,81.43,9.4c-.14-.41-.14-.66,0-.78s.59.05.64.08l.52.39c3.27,2,3.56,9.28,3.57,9.6,0,.58-.15.94-.36,1a.31.31,0,0,1-.15,0A.5.5,0,0,1,85.49,19.74Zm-4-11s-.12.18,0,.63h0a75.35,75.35,0,0,1,1.19,9.77.47.47,0,0,0,.14.29.84.84,0,0,0,.61.17h2a.23.23,0,0,0,.2,0c.09-.05.25-.24.29-.93,0-.08-.3-7.53-3.52-9.49L82,8.82a.84.84,0,0,0-.37-.13A.12.12,0,0,0,81.52,8.73Z" transform="translate(-2.36 -1.91)"/><path class="cls-7" d="M80.23,20.14H73.51a1.68,1.68,0,0,1-1.32-.54,3.34,3.34,0,0,1-.51-2.35l.8-6A3.88,3.88,0,0,1,76.13,8c.8,0,3,.15,3,.16,1.23.07,1.45,1.54,1.46,1.55l.63,8.81a1.48,1.48,0,0,1-.21,1.32,1,1,0,0,1-.73.28Zm-4.09-12a3.76,3.76,0,0,0-3.53,3.09l-.8,6a3.32,3.32,0,0,0,.49,2.24,1.52,1.52,0,0,0,1.21.49h6.72a.94.94,0,0,0,.72-.24,1.35,1.35,0,0,0,.17-1.2l-.63-8.81c0-.06-.21-1.37-1.33-1.43,0,0-1.91-.17-2.82-.17Z" transform="translate(-2.36 -1.91)"/><path class="cls-7" d="M85.49,19.74h-2a.93.93,0,0,1-.72-.2.59.59,0,0,1-.17-.39A75.73,75.73,0,0,0,81.43,9.4c-.14-.41-.14-.66,0-.78s.59.05.64.08l.52.39c3.27,2,3.56,9.28,3.57,9.6,0,.58-.15.94-.36,1a.31.31,0,0,1-.15,0A.5.5,0,0,1,85.49,19.74Zm-4-11s-.12.18,0,.63h0a75.35,75.35,0,0,1,1.19,9.77.47.47,0,0,0,.14.29.84.84,0,0,0,.61.17h2a.23.23,0,0,0,.2,0c.09-.05.25-.24.29-.93,0-.08-.3-7.53-3.52-9.49L82,8.82a.84.84,0,0,0-.37-.13A.12.12,0,0,0,81.52,8.73Z" transform="translate(-2.36 -1.91)"/></g></g></svg>